<?xml version="1.0" encoding="utf-8"?>
<!DOCTYPE svg PUBLIC "-//W3C//DTD SVG 1.1//EN" "http://www.w3.org/Graphics/SVG/1.1/DTD/svg11.dtd">
<svg version="1.1" xmlns="http://www.w3.org/2000/svg" xmlns:xlink="http://www.w3.org/1999/xlink" x="0px" y="0px" viewBox="0 0 1000 1000" enable-background="new 0 0 1000 1000" xml:space="preserve">
<g><path fill="#aaa" d="M990,940.4L721.4,671.9c58.8-70,94.4-160.3,94.4-258.9C815.8,190.4,635.4,10,412.9,10C190.4,10,10,190.4,10,412.9c0,222.5,180.3,402.9,402.8,402.9h0.1c0,0,0,0,0.1,0c98.6,0,188.9-35.5,258.9-94.4L940.5,990L990,940.4z M412.8,745.7c-183.5,0-332.7-149.3-332.7-332.8c0-183.5,149.3-332.8,332.8-332.8c88.9,0,172.5,34.6,235.4,97.5c62.9,62.9,97.4,146.4,97.4,235.4c0,88.9-34.6,172.5-97.4,235.3C585.4,711.1,501.8,745.7,412.8,745.7z"/></g>
</svg>
